<svg width="258" height="258" viewBox="0 0 258 258" fill="none" xmlns="http://www.w3.org/2000/svg">
<g clip-path="url(#clip0_169_49)">
<path d="M0 129C0 94.7871 13.591 61.9754 37.7832 37.7832C61.9754 13.591 94.7871 0 129 0C163.213 0 196.025 13.591 220.217 37.7832C244.409 61.9754 258 94.7871 258 129C258 163.213 244.409 196.025 220.217 220.217C196.025 244.409 163.213 258 129 258C94.7871 258 61.9754 244.409 37.7832 220.217C13.591 196.025 0 163.213 0 129ZM120.938 17.3666C110.134 20.6561 99.4106 30.5891 90.5096 47.2785C87.5786 52.8278 85.0564 58.5836 82.9631 64.5H120.938V17.3666ZM65.9513 64.5C68.6415 55.9357 72.0954 47.6302 76.2713 39.6836C79.0777 34.4223 82.2966 29.3917 85.8979 24.639C65.9214 32.9284 48.7332 46.7595 36.3619 64.5H65.9513ZM56.5665 120.938C57.0502 106.796 58.7917 93.2348 61.5975 80.625H26.9933C20.9955 93.2894 17.4084 106.96 16.4153 120.938H56.5665ZM78.1579 80.625C74.9863 93.8443 73.1603 107.351 72.7076 120.938H120.938V80.625H78.1579ZM137.062 80.625V120.938H185.276C184.829 107.351 183.008 93.8449 179.842 80.625H137.062ZM72.7238 137.062C73.1711 150.649 74.9918 164.155 78.1579 177.375H120.938V137.062H72.7238ZM137.062 137.062V177.375H179.842C182.857 165.039 184.776 151.446 185.292 137.062H137.062ZM82.9631 193.5C85.1991 199.735 87.7146 205.475 90.5096 210.721C99.4106 227.411 110.15 237.328 120.938 240.633V193.5H82.9631ZM85.8979 233.361C82.2966 228.608 79.0777 223.578 76.2713 218.316C72.0954 210.37 68.6415 202.064 65.9513 193.5H36.3619C48.7132 211.259 65.9074 225.095 85.8979 233.361ZM61.5975 177.375C58.6859 164.121 57.0018 150.626 56.5665 137.062H16.4153C17.415 151.414 21.1076 165.007 26.9933 177.375H61.5975ZM172.102 233.361C192.093 225.095 209.287 211.259 221.638 193.5H192.049C189.358 202.064 185.905 210.37 181.729 218.316C178.922 223.578 175.703 228.608 172.102 233.361ZM137.062 193.5V240.633C147.866 237.344 158.589 227.411 167.49 210.721C170.285 205.486 172.801 199.746 175.037 193.5H137.062ZM196.403 177.375H231.007C236.892 165.007 240.585 151.414 241.585 137.062H201.433C200.998 150.626 199.314 164.121 196.403 177.375ZM241.585 120.938C240.592 106.96 237.004 93.2894 231.007 80.625H196.403C199.208 93.2348 200.95 106.796 201.433 120.938H241.585ZM181.729 39.6836C185.712 47.1656 189.178 55.4861 192.049 64.5H221.638C209.287 46.7408 192.093 32.9048 172.102 24.639C175.617 29.2185 178.842 34.2817 181.729 39.6836ZM175.037 64.5C172.944 58.5836 170.421 52.8278 167.49 47.2785C158.589 30.5891 147.866 20.6723 137.062 17.3666V64.5H175.037Z" fill="#00A99D"/>
</g>
<defs>
<clipPath id="clip0_169_49">
<rect width="258" height="258" fill="white"/>
</clipPath>
</defs>
</svg>
