<svg width="264" height="239" viewBox="0 0 264 239" fill="none" xmlns="http://www.w3.org/2000/svg">
<g clip-path="url(#clip0_168_43)">
<path d="M263.049 74.3194C262.549 76.6194 261.949 78.9194 261.449 81.2194C258.649 94.6194 252.449 106.319 242.749 116.019C203.249 155.519 163.749 195.019 124.249 234.519C119.449 239.319 115.049 239.719 111.249 236.119C107.549 232.519 108.149 227.519 112.949 222.719C151.849 183.819 190.749 144.919 229.649 106.019C245.649 89.9194 250.749 71.0194 242.749 49.5194C230.449 16.5194 188.249 6.01943 161.649 29.2194C157.649 32.7194 153.949 36.5194 150.249 40.3194C109.449 81.0194 68.7494 121.819 28.0494 162.519C18.1494 172.419 14.0494 183.919 17.8494 197.619C24.6494 221.719 53.3494 230.619 72.6494 214.719C74.1494 213.519 75.4494 212.219 76.7494 210.919C117.549 170.119 158.449 129.219 199.349 88.4194C204.549 83.2194 207.649 77.6194 205.749 70.0194C202.649 57.8194 188.349 52.8194 178.449 60.5194C176.849 61.8194 175.449 63.3194 173.949 64.7194C140.349 98.3194 106.849 131.819 73.2494 165.419C72.1494 166.519 71.0494 167.619 69.9494 168.719C65.5494 172.919 60.6494 173.519 57.2494 170.219C53.3494 166.519 53.7494 161.919 58.3494 157.219C83.6494 131.819 108.949 106.519 134.349 81.2194C144.849 70.7194 155.349 60.0194 166.049 49.7194C176.249 40.0194 190.649 37.9194 203.249 43.7194C215.549 49.4194 223.249 61.9194 222.649 75.6194C222.349 84.1194 219.149 91.7194 213.049 97.7194C169.249 141.619 125.549 185.719 81.2494 229.119C74.4494 235.819 64.3494 237.919 54.6494 238.619C33.0494 240.219 13.9494 229.019 5.04939 209.919C-4.05061 190.419 -0.85061 168.519 14.6494 152.919C59.1494 108.019 103.749 63.1194 148.949 18.8194C167.949 0.219429 191.749 -4.48057 216.949 4.21943C242.349 12.9194 257.249 31.5194 261.949 58.1194C262.149 59.4194 262.749 60.7194 263.049 62.0194C263.049 66.1194 263.049 70.2194 263.049 74.3194Z" fill="#00A99D"/>
</g>
<defs>
<clipPath id="clip0_168_43">
<rect width="263.1" height="238.7" fill="white"/>
</clipPath>
</defs>
</svg>
