<svg width="256" height="256" viewBox="0 0 256 256" fill="none" xmlns="http://www.w3.org/2000/svg">
<g clip-path="url(#clip0_168_24)">
<path d="M256 119.5C256 124.8 256 130.2 256 135.5C255.7 136.9 255.1 138.4 255 139.8C249.5 193.1 213.4 236.2 161.8 250.5C153.4 252.8 144.6 253.9 136 255.5C130.7 255.5 125.3 255.5 120 255.5C118.6 255.2 117.1 254.6 115.7 254.5C61.4 249.2 16.8 210.6 4 157.5C2.3 150.3 1.3 142.9 0 135.5C0 130.2 0 124.8 0 119.5C0.5 116.4 1 113.3 1.4 110.2C11.2 41.9996 71.3 -5.60044 139.9 0.499555C193.9 5.29956 239.3 44.3996 251.8 96.9996C253.6 104.4 254.6 112 256 119.5ZM127.6 37.8996C123.1 38.3996 118.6 38.5996 114.2 39.3996C86.1 44.1996 70 70.1996 78.8 96.5996C82.3 107.1 89.6 114.6 99 119.7C109.2 125.2 120.2 129.4 130.4 135C138.5 139.4 146.9 144.1 153.5 150.3C164.4 160.6 162.4 177.1 150.2 185.9C141.9 191.9 132.5 193.4 122.6 191.9C110 190 99.5 183.8 89.9 175.8C85.6 172.2 83.5 172.4 79.8 176.5C78.8 177.6 77.9 178.8 77 180C73.7 184.5 73.8 186.6 78 190.2C87.1 198 97.5 203.5 109.2 206.4C129.4 211.4 148.6 209.7 165.4 196.2C174.8 188.6 180 178.7 180.2 166.4C180.5 151.1 174 139 161.4 131.1C150.5 124.3 138.3 119.4 126.9 113.3C118.7 108.9 109.9 105 103.1 98.9996C88.7 86.1996 93.4 64.6996 111.3 57.7996C115.6 56.1996 120.3 55.2996 124.9 54.9996C137.1 54.1996 147.5 59.2996 157.8 65.0996C163.4 68.2996 165.6 67.0996 170 59.4996C172.7 54.7996 171.9 52.1996 167 49.2996C154.9 42.0996 141.8 38.1996 127.6 37.8996Z" fill="#00A99D"/>
</g>
<defs>
<clipPath id="clip0_168_24">
<rect width="256" height="255.5" fill="white"/>
</clipPath>
</defs>
</svg>
