<svg width="191" height="256" viewBox="0 0 191 256" fill="none" xmlns="http://www.w3.org/2000/svg">
<g clip-path="url(#clip0_168_27)">
<path d="M173.25 256C121.394 256 69.5391 256 17.6839 256C16.8197 255.599 15.9554 255.065 15.0247 254.798C5.85031 251.662 0.0664623 244.254 0.0664623 234.577C-1.86962e-05 190.732 -1.86962e-05 146.886 0.0664623 103.04C0.0664623 97.9684 1.86145 96.2333 6.98049 96.1666C11.5677 96.0998 16.1549 96.1666 21.4069 96.1666C21.4069 93.2302 21.3404 90.9612 21.4069 88.6254C21.6063 80.2834 21.0745 71.8746 22.2046 63.6661C27.1242 28.6296 56.9742 1.73488 92.0097 0.133212C127.178 -1.46846 159.023 21.8892 167.067 56.3918C169.46 66.8027 168.862 77.8809 169.66 88.6254C169.859 91.0279 169.925 93.4304 170.058 96.1666C175.111 96.1666 179.565 96.0998 184.019 96.1666C189.139 96.2333 191 97.9684 191 103.04C191 146.886 191.066 190.798 191 234.644C191 244.321 185.216 251.729 175.975 254.865C175.045 255.132 174.18 255.599 173.25 256ZM51.9217 95.6994C81.5057 95.6994 109.76 95.6994 138.347 95.6994C138.347 87.8245 138.679 80.3501 138.281 72.8756C137.15 51.1864 120.796 33.7682 99.9875 31.6994C78.5806 29.5639 58.5033 43.3115 54.1155 64.4669C52.0546 74.4106 52.5865 84.8882 51.9217 95.6994ZM95.6662 213.622C98.4584 213.622 101.317 213.756 104.109 213.622C110.359 213.422 112.153 211.42 111.555 205.214C110.824 197.939 110.026 190.665 109.029 183.391C108.497 179.72 109.029 176.984 111.755 173.981C119.533 165.439 118.669 152.025 110.358 144.217C102.048 136.342 88.7522 136.475 80.575 144.417C72.3978 152.425 71.6665 165.706 79.5778 174.181C82.237 177.051 82.5694 179.72 82.1041 183.191C81.1068 190.798 80.1761 198.406 79.5113 206.014C79.0459 211.353 80.9074 213.355 86.2924 213.622C89.3505 213.756 92.4751 213.622 95.6662 213.622Z" fill="#00A99D"/>
</g>
<defs>
<clipPath id="clip0_168_27">
<rect width="191" height="256" fill="white"/>
</clipPath>
</defs>
</svg>
