<svg width="256" height="256" viewBox="0 0 256 256" fill="none" xmlns="http://www.w3.org/2000/svg">
<g clip-path="url(#clip0_168_20)">
<path d="M0 181.99C0.525667 179.74 0.976239 177.491 1.50191 175.241C4.28043 162.044 10.0628 150.421 19.675 140.823C36.0458 124.401 52.2664 107.829 68.8624 91.7075C100.402 61.0385 153.194 68.0121 173.545 104.83C165.36 113.003 157.25 121.027 148.989 129.275C148.388 128.075 147.713 126.726 147.037 125.301C137.5 105.055 110.766 98.8311 94.3197 113.978C76.372 130.625 59.1 148.021 42.2787 165.868C29.8879 178.99 31.2397 199.836 44.0059 212.434C56.7721 225.106 77.1229 225.781 90.7152 213.784C96.3473 208.835 101.379 203.211 106.861 198.112C108.062 196.987 110.465 196.012 111.817 196.387C124.358 200.361 137.124 202.161 151.467 200.136C149.74 202.011 148.764 203.211 147.637 204.335C137.65 214.384 127.512 224.282 117.599 234.405C106.335 245.802 93.0431 253.076 76.9727 255.026C75.9965 255.176 75.0953 255.7 74.1942 256C70.2141 256 66.159 256 62.1789 256C61.0525 255.625 60.0012 255.176 58.8747 254.951C29.963 250.077 11.3394 233.43 2.70343 205.61C1.50191 201.861 0.901144 197.887 0.0750953 194.062C0 190.013 0 186.039 0 181.99Z" fill="#00A99D"/>
<path d="M105.584 55.7888C106.185 54.814 106.41 54.1391 106.861 53.7642C119.252 41.3916 131.117 28.3442 144.258 16.9464C164.234 -0.375212 187.738 -4.49941 212.445 5.02373C237.001 14.4719 251.419 32.9183 255.174 59.0132C258.328 80.534 251.87 99.3553 236.926 114.877C220.63 131.824 204.034 148.471 186.988 164.743C155.898 194.362 106.035 188.438 83.6563 152.97C83.2057 152.295 82.8303 151.545 82.9054 151.695C91.1659 143.297 99.2011 135.123 107.462 126.8C107.912 127.7 108.438 128.825 108.888 130.024C118.651 151.545 145.76 157.394 163.257 141.197C175.273 130.099 186.462 118.252 198.102 106.704C203.058 101.755 208.164 96.9558 212.895 91.7818C225.962 77.6845 225.662 56.7636 212.22 43.6412C198.777 30.5188 177.901 30.5188 164.008 43.7912C159.052 48.5152 154.396 53.5393 149.365 58.1884C148.238 59.2381 146.061 60.213 144.784 59.838C132.243 55.7138 119.402 53.9142 105.584 55.7888Z" fill="#00A99D"/>
</g>
<defs>
<clipPath id="clip0_168_20">
<rect width="256" height="256" fill="white"/>
</clipPath>
</defs>
</svg>
