<svg width="228" height="228" viewBox="0 0 228 228" fill="none" xmlns="http://www.w3.org/2000/svg">
<g clip-path="url(#clip0_168_30)">
<path d="M113.8 0.000169423C179.7 -0.399831 227.7 55.8002 227.4 114.2C227.1 170 181.6 227.3 113.5 227.3C49.8001 227.3 -0.19989 176.1 0.000109617 111.4C0.20011 50.2002 51.7001 -0.199831 113.8 0.000169423ZM113.8 206.1C164.9 206.1 206.3 164.6 206.2 113.5C206.1 62.2002 164.9 21.0002 113.7 21.1002C62.6001 21.1002 21.1001 62.6002 21.2001 113.7C21.1001 164.6 62.8001 206.2 113.8 206.1Z" fill="#B50F0F"/>
<path d="M127.9 92.3C127.9 102.4 128 112.6 127.9 122.7C127.8 130.2 123 134.5 114.5 134.8C105.3 135.1 99.6 131 99.6 123.3C99.4 102.7 99.4 82.1 99.6 61.4C99.7 53.8 105.7 49.4 114.5 49.7C123.1 50 128 54.5 128 62.3C128 72.3 127.9 82.3 127.9 92.3Z" fill="#B50F0F"/>
<path d="M99.6999 163.6C99.5999 155.5 105.7 149.3 113.7 149.3C121.5 149.3 127.7 155.4 127.8 163.1C127.9 171 121.6 177.4 113.7 177.4C105.9 177.5 99.7999 171.4 99.6999 163.6Z" fill="#B50F0F"/>
</g>
<defs>
<clipPath id="clip0_168_30">
<rect width="227.5" height="227.3" fill="white"/>
</clipPath>
</defs>
</svg>
