<svg width="199" height="256" viewBox="0 0 199 256" fill="none" xmlns="http://www.w3.org/2000/svg">
<g clip-path="url(#clip0_168_39)">
<path d="M95.5022 256C93.5033 255.263 91.4304 254.6 89.4315 253.863C77.4382 249.589 68.9985 237.873 69.8868 226.229C89.5055 226.229 109.124 226.229 129.335 226.229C129.631 234.262 126.966 241.336 121.118 246.126C116.009 250.326 109.42 252.758 103.498 255.927C100.833 256 98.1674 256 95.5022 256Z" fill="#00A99D"/>
<path d="M98.9818 208.691C71.2936 208.691 43.6794 208.617 15.9911 208.765C9.84641 208.765 4.66412 207.217 1.62878 201.543C-1.40656 195.943 5.72982e-05 190.711 3.55363 185.626C11.5492 174.13 19.5447 162.561 27.2441 150.844C28.7988 148.486 29.7612 145.391 29.8352 142.591C30.1314 126.379 29.6132 110.241 30.2054 94.029C31.2419 63.6686 51.823 38.0981 81.362 30.2869C85.4338 29.1816 86.3963 27.4867 86.2482 23.8022C86.1001 19.8229 86.1001 15.77 86.4703 11.7907C87.1366 5.08487 92.689 0.147619 99.278 0.000237984C106.015 -0.147143 111.938 4.8638 112.604 11.7907C113.048 16.2858 112.974 20.7809 112.9 25.276C112.826 28.0762 114.01 29.2553 116.75 29.9922C147.991 38.5403 167.832 63.2265 168.943 95.5028C169.461 111.199 168.943 126.895 169.239 142.517C169.313 145.317 170.275 148.486 171.83 150.771C179.529 162.487 187.525 174.057 195.521 185.552C199.074 190.637 200.481 195.795 197.445 201.469C194.41 207.144 189.228 208.691 183.083 208.691C154.951 208.617 126.966 208.691 98.9818 208.691Z" fill="#00A99D"/>
</g>
<defs>
<clipPath id="clip0_168_39">
<rect width="199" height="256" fill="white"/>
</clipPath>
</defs>
</svg>
