<svg width="185" height="256" viewBox="0 0 185 256" fill="none" xmlns="http://www.w3.org/2000/svg">
<g clip-path="url(#clip0_168_46)">
<path d="M90.4478 256C88.0451 253.729 85.3754 251.726 83.2396 249.255C56.2758 217.468 31.7815 184.077 14.0948 146.146C6.75318 130.386 1.21359 114.024 0.145712 96.3943C-2.45723 51.9852 30.1129 10.1137 73.829 1.76617C127.022 -8.3177 175.544 25.7404 184.02 79.3653C186.89 97.4628 183.153 114.826 176.745 131.788C164.865 163.108 146.845 190.889 126.956 217.601C119.013 228.286 110.404 238.57 101.994 248.854C99.7917 251.526 96.9885 253.663 94.4523 256C93.1175 256 91.7826 256 90.4478 256ZM92.5168 139.401C118.48 139.334 139.703 118.031 139.503 92.2539C139.303 66.343 118.012 45.3739 92.0496 45.5075C66.4874 45.641 45.3301 66.8773 45.3301 92.4543C45.3301 118.232 66.6209 139.468 92.5168 139.401Z" fill="#00A99D"/>
</g>
<defs>
<clipPath id="clip0_168_46">
<rect width="185" height="256" fill="white"/>
</clipPath>
</defs>
</svg>
