<svg width="159" height="171" viewBox="0 0 159 171" fill="none" xmlns="http://www.w3.org/2000/svg">
<g clip-path="url(#clip0_168_35)">
<path d="M85.9001 170.3C58.0001 169.7 36.7001 168.9 16.4001 161.2C0.700053 155.2 -1.09995 152.5 0.500053 135.9C1.10005 130 1.80005 124 3.00005 118.1C5.30005 107 11.8001 98.8 22.5001 95.2C32.8001 91.7 43.6001 89.6 54.3001 87.1C55.6001 86.8 57.5001 87.6 58.8001 88.3C72.6001 95.7 86.4001 95.7 100.3 88.4C101.7 87.7 103.5 86.8 104.8 87.1C115.2 89.4 125.7 91.3 135.7 94.8C150.5 99.9 156.4 112.2 157.9 126.9C158.5 133.4 158.5 139.9 159.1 146.3C159.5 150.6 157.7 153.2 154.4 155.3C144.2 162.1 132.6 165.4 120.7 166.9C106.9 168.7 93.1001 169.6 85.9001 170.3Z" fill="#B12222"/>
<path d="M121.4 37.4002C123 60.3002 107.8 79.5002 85.5001 82.8002C64.2001 86.0002 43.7001 72.3002 38.7001 51.3002C36.2001 40.7002 37.1001 30.1002 40.8001 19.9002C44.3001 10.3002 51.6001 4.90016 61.2001 2.40016C72.5001 -0.599841 84.0001 -0.699841 95.3001 1.80016C111.2 5.40016 119.5 15.1002 120.9 31.4002C121.1 33.4002 121.2 35.4002 121.4 37.4002Z" fill="#B12222"/>
</g>
<defs>
<clipPath id="clip0_168_35">
<rect width="159" height="170.3" fill="white"/>
</clipPath>
</defs>
</svg>
