<svg width="19" height="21" viewBox="0 0 19 21" fill="none" xmlns="http://www.w3.org/2000/svg">
<path fill-rule="evenodd" clip-rule="evenodd" d="M0 1C0 0.447266 0.447754 0 1 0H17C17.5522 0 18 0.447266 18 1V10.3926C18.6348 11.4463 19 12.6807 19 14C19 17.8662 15.8662 21 12 21C9.62109 21 7.51904 19.8135 6.25439 18H1C0.447754 18 0 17.5527 0 17V1ZM5.29004 16C5.10156 15.3662 5 14.6953 5 14C5 13.6602 5.02393 13.3262 5.0708 13H2V16H5.29004ZM5.67334 11C6.19824 9.89453 7.00488 8.94922 8 8.25488V8H2V11H5.67334ZM15.6079 8C15.7417 8.08008 15.8726 8.16602 16 8.25488V8H15.6079ZM2 3H8V6H2V3ZM16 3H10V6H16V3ZM12 19C14.7612 19 17 16.7617 17 14C17 11.2383 14.7612 9 12 9C9.23877 9 7 11.2383 7 14C7 16.7617 9.23877 19 12 19ZM12.5898 11.3945C12.7183 11.5625 12.7944 11.7725 12.7944 12V13.9971L14.207 15.4102C14.5977 15.8008 14.5977 16.4336 14.207 16.8242C14.1216 16.9102 14.0244 16.9766 13.9204 17.0244C13.5508 17.1963 13.0977 17.1289 12.7925 16.8242L11.0869 15.1182C10.8994 14.9307 10.7944 14.6768 10.7944 14.4111V12C10.7944 11.4482 11.2422 11 11.7944 11C12.1187 11 12.4067 11.1553 12.5898 11.3945Z" fill="white"/>
</svg>
