<svg width="159" height="171" viewBox="0 0 159 171" fill="none" xmlns="http://www.w3.org/2000/svg">
<g clip-path="url(#clip0_217_87)">
<g filter="url(#filter0_i_217_87)">
<path d="M85.5 170.5C58.1 169.9 36.8 169 16.5 161.5C15.9 161.3 15.2 161.1 14.6 160.8C0.599978 155 -0.900022 152.8 0.299978 137.8C0.899978 130.7 1.69998 123.5 3.29998 116.6C5.49998 107.2 11.3 99.6001 20.4 96.5001C31.3 92.7001 42.7 90.3001 54 87.5001C55.2 87.2001 56.9 87.8001 58.1 88.5001C72.2 96.2001 86.3 96.2001 100.4 88.5001C101.7 87.8001 103.6 87.2001 105 87.5001C115.2 89.8001 125.6 91.7001 135.4 95.1001C150.5 100.3 156.1 112.9 157.5 127.8C158.1 133.9 158 140.1 158.7 146.2C159.3 151 157 153.6 153.4 155.9C143.2 162.4 131.8 165.6 120.1 167.1C106.7 168.9 93.1 169.8 85.5 170.5Z" fill="#3F3F3F"/>
</g>
<g filter="url(#filter1_i_217_87)">
<path d="M79.2999 0C84.8999 0.8 90.4999 1.2 95.9999 2.4C109.4 5.3 117.5 13.6 120 27.2C123.3 45.6 121.1 62.3 105.2 74.4C91.0999 85.2 75.3999 86.5 59.6999 78.3C44.1999 70.2 37.0999 56.8 37.4999 39.4C37.5999 35.9 37.6999 32.4 38.2999 29C41.5999 10.7 52.0999 2.2 73.1999 0.7C75.1999 0.6 77.1999 0.7 79.1999 0.7C79.1999 0.4 79.2999 0.2 79.2999 0Z" fill="#3F3F3F"/>
</g>
</g>
<defs>
<filter id="filter0_i_217_87" x="-0.0297852" y="87.4209" width="158.825" height="83.0791" filterUnits="userSpaceOnUse" color-interpolation-filters="sRGB">
<feFlood flood-opacity="0" result="BackgroundImageFix"/>
<feBlend mode="normal" in="SourceGraphic" in2="BackgroundImageFix" result="shape"/>
<feColorMatrix in="SourceAlpha" type="matrix" values="0 0 0 0 0 0 0 0 0 0 0 0 0 0 0 0 0 0 127 0" result="hardAlpha"/>
<feOffset/>
<feGaussianBlur stdDeviation="2.35"/>
<feComposite in2="hardAlpha" operator="arithmetic" k2="-1" k3="1"/>
<feColorMatrix type="matrix" values="0 0 0 0 0 0 0 0 0 0 0 0 0 0 0 0 0 0 0.25 0"/>
<feBlend mode="normal" in2="shape" result="effect1_innerShadow_217_87"/>
</filter>
<filter id="filter1_i_217_87" x="37.4839" y="0" width="83.8315" height="83.6084" filterUnits="userSpaceOnUse" color-interpolation-filters="sRGB">
<feFlood flood-opacity="0" result="BackgroundImageFix"/>
<feBlend mode="normal" in="SourceGraphic" in2="BackgroundImageFix" result="shape"/>
<feColorMatrix in="SourceAlpha" type="matrix" values="0 0 0 0 0 0 0 0 0 0 0 0 0 0 0 0 0 0 127 0" result="hardAlpha"/>
<feOffset/>
<feGaussianBlur stdDeviation="2.35"/>
<feComposite in2="hardAlpha" operator="arithmetic" k2="-1" k3="1"/>
<feColorMatrix type="matrix" values="0 0 0 0 0 0 0 0 0 0 0 0 0 0 0 0 0 0 0.25 0"/>
<feBlend mode="normal" in2="shape" result="effect1_innerShadow_217_87"/>
</filter>
<clipPath id="clip0_217_87">
<rect width="158.9" height="170.5" fill="white"/>
</clipPath>
</defs>
</svg>
