<svg width="250" height="250" viewBox="0 0 250 250" fill="none" xmlns="http://www.w3.org/2000/svg">
<path fill-rule="evenodd" clip-rule="evenodd" d="M125 0C194.036 0 250 55.9644 250 125C250 194.036 194.036 250 125 250C55.9644 250 0 194.036 0 125C0 55.9644 55.9644 0 125 0ZM53.2646 205.734C72.34 222.696 97.4664 233 125 233C184.647 233 233 184.647 233 125C233 97.4664 222.696 72.34 205.734 53.2646L53.2646 205.734ZM125 17C65.3532 17 17 65.3532 17 125C17 150.993 26.1835 174.84 41.4814 193.477L193.477 41.4814C174.84 26.1835 150.993 17 125 17Z" fill="#FBAF17"/>
</svg>
