<svg width="18" height="18" viewBox="0 0 18 18" fill="none" xmlns="http://www.w3.org/2000/svg">
<path fill-rule="evenodd" clip-rule="evenodd" d="M11.0224 12.7296C9.88437 13.53 8.49707 14 7 14C3.13401 14 0 10.866 0 7C0 3.13401 3.13401 0 7 0C10.866 0 14 3.13401 14 7C14 8.64734 13.431 10.1618 12.4787 11.3575L17.0606 15.9394C17.4511 16.3299 17.4511 16.9631 17.0606 17.3536C16.6701 17.7441 16.0369 17.7441 15.6464 17.3536L11.0224 12.7296ZM12 7C12 9.76142 9.76142 12 7 12C4.23858 12 2 9.76142 2 7C2 4.23858 4.23858 2 7 2C9.76142 2 12 4.23858 12 7Z" fill="white"/>
</svg>
