<svg width="266" height="266" viewBox="0 0 266 266" fill="none" xmlns="http://www.w3.org/2000/svg">
<path fill-rule="evenodd" clip-rule="evenodd" d="M133 266C206.454 266 266 206.454 266 133C266 59.5459 206.454 0 133 0C59.5459 0 0 59.5459 0 133C0 206.454 59.5459 266 133 266ZM87.5391 47.5127C101.68 39.9541 117.466 36 133.5 36V133.5L202.443 202.443C191.105 213.78 177.146 222.147 161.803 226.802C146.459 231.456 130.205 232.255 114.479 229.127C98.7529 225.998 84.041 219.04 71.6465 208.868C59.2524 198.696 49.5576 185.625 43.4219 170.812C37.2856 155.998 34.8979 139.9 36.4697 123.943C38.041 107.986 43.5239 92.6641 52.4316 79.332C61.3398 66 73.3979 55.0713 87.5391 47.5127Z" fill="white"/>
</svg>
